PathFileType	4	(X/Y/Z)	C:\Users\WrightLab\Desktop\Jo\P5V43.trc
DataRate	CameraRate	NumFrames	NumMarkers	Units	OrigDataRate	OrigDataStartFrame	OrigNumFrames
100.00	100.00	       11	19	mm	100.00	431	       860
Frame#	Time	Headset_Front			Headset_Back			Headset_Left			Headset_Right			Left_Shoulder			Right_Shoulder			Sternum			C7			Left Elbow			Right Elbow			Left Wrist			Right Wrist			Left ASIS			Right ASIS			S2			Left Knee			Right Knee			Left Ankle			Right Ankle			
		X1	Y1	Z1	X2	Y2	Z2	X3	Y3	Z3	X4	Y4	Z4	X5	Y5	Z5	X6	Y6	Z6	X7	Y7	Z7	X8	Y8	Z8	X9	Y9	Z9	X10	Y10	Z10	X11	Y11	Z11	X12	Y12	Z12	X13	Y13	Z13	X14	Y14	Z14	X15	Y15	Z15	X16	Y16	Z16	X17	Y17	Z17	X18	Y18	Z18	X19	Y19	Z19	

431	4.300	-422.57718	1491.42273	-195.14908				-392.72449	1624.08423	-357.94812				-392.84436	1492.85071	-511.70300	-721.42657	1478.80884	-258.37335	-525.38214	1323.32996	-307.82446	-640.65540	1517.38110	-486.78452	-350.77078	1174.75952	-560.70996	-825.30231	1206.59082	-188.80246	-326.84485	981.28375	-413.19922	-700.39990	1036.67969	-53.52899	-415.31091	923.25000	-372.65887	-646.78040	964.11371	-198.59859	-696.89221	965.01495	-532.35675	-432.35611	480.67804	-400.48038	-614.16162	572.08002	-115.85040	-633.09082	79.23277	-474.00000	-763.71796	151.84564	-229.38133	
432	4.310	-419.41315	1492.44446	-191.39906	-544.62292	1577.44556	-184.47690	-391.20358	1625.35608	-353.98746				-392.59973	1493.70520	-508.35425	-716.44202	1478.95178	-249.98288	-521.85480	1323.51660	-302.18600	-642.35236	1519.05408	-480.41910	-350.60544	1175.40698	-557.42596	-821.59558	1206.51575	-180.61348	-325.02676	982.80426	-411.30603	-694.66150	1036.27979	-46.61074	-411.94867	925.10620	-367.39011	-641.44165	964.93597	-194.21674	-697.47260	965.82251	-525.74554	-431.20724	480.86105	-397.50595	-607.30603	570.68298	-113.37971	-633.61951	80.51089	-474.65472	-751.77960	145.87090	-204.55264	
433	4.320	-415.76971	1493.57739	-186.64331	-542.48743	1578.12976	-179.57062	-389.64975	1626.52502	-349.62561				-392.35019	1494.11951	-505.03406	-713.11377	1479.30322	-242.07442	-518.24548	1324.28137	-297.56158	-641.21692	1518.79919	-472.84711	-350.38300	1176.56311	-555.96155	-816.25830	1206.32397	-171.03270	-323.47025	983.84552	-409.41968	-689.78882	1035.62781	-39.71646	-413.91287	924.05573	-368.55005	-637.04089	964.21478	-189.98608	-697.58826	967.81219	-517.95166	-431.89008	480.65643	-395.03522	-601.72668	567.88153	-109.50254	-633.61914	80.82663	-474.05539	-738.19922	140.50099	-181.46910	
434	4.330	-414.32074	1495.05200	-181.09171	-538.20703	1578.14319	-173.01894	-387.86203	1626.96021	-345.52402				-391.87845	1495.21619	-501.33783	-709.36975	1479.18579	-234.13957	-514.72058	1324.42053	-292.41537	-640.64471	1519.46960	-466.03018	-349.97388	1176.86743	-554.80829	-812.94727	1206.07581	-165.50542	-321.38187	984.78369	-408.24881	-684.66510	1035.15112	-32.91667	-413.43698	924.45972	-366.45950	-633.36218	963.09045	-184.04683	-697.43097	968.05286	-510.68423	-430.86072	481.50281	-391.39615	-596.64764	564.95801	-108.08687	-634.03961	81.17094	-473.30286	-723.93707	135.12282	-157.29478	
435	4.340	-409.78696	1495.62622	-176.32513	-536.34729	1579.38550	-168.18117	-386.12000	1627.88550	-339.24713				-391.62637	1495.56274	-498.52591	-705.59570	1478.85535	-225.71645	-511.07123	1324.54260	-288.04807	-639.96765	1519.22925	-459.03351	-350.45523	1177.74670	-551.11292	-807.59607	1204.94385	-157.01828	-320.91898	985.85785	-405.81473	-679.10840	1034.72144	-27.01930	-409.48419	926.55011	-359.37411	-627.95300	963.01837	-178.37476	-696.73761	968.62445	-503.67148	-431.60757	480.96848	-388.55353	-591.85065	561.97229	-106.24709	-634.04663	81.47400	-472.73035	-709.88458	130.10768	-132.64963	
436	4.350	-406.32327	1497.16040	-171.26559	-533.58093	1580.24634	-162.66287	-384.28619	1628.59131	-334.68909				-391.00638	1496.31152	-494.56161	-700.75800	1478.79907	-218.08437	-507.53403	1324.85608	-282.28503	-638.37878	1519.33948	-452.05692	-350.27054	1178.56018	-550.25226	-802.85205	1204.77820	-148.94121	-319.47751	986.51129	-404.25900	-673.54291	1033.88525	-20.81668	-410.62866	925.94910	-359.15375	-622.81555	963.37378	-173.68451	-695.90204	969.08765	-497.70966	-431.71594	480.73541	-385.23996	-588.51636	558.45233	-103.69579	-633.98260	81.82651	-472.03802	-694.43518	127.02763	-112.17617	
437	4.360	-404.24615	1498.75940	-164.73921	-531.28375	1581.04443	-156.94635	-382.50327	1629.36060	-330.08487				-390.16159	1496.44116	-490.66342	-697.09583	1478.68909	-210.58994	-503.51175	1324.90027	-278.01703	-637.19641	1519.41675	-445.34280	-349.89157	1179.35864	-547.86206	-798.48230	1204.34668	-142.00749	-316.89890	986.99438	-403.35654	-667.72937	1033.95410	-14.37371	-410.64316	924.78900	-357.39963	-618.06323	962.49194	-167.60028	-694.71484	969.26776	-491.31213	-431.39093	480.68484	-381.75589	-585.48267	555.11176	-100.48373	-634.41016	82.44004	-469.82199	-679.06122	124.58327	-90.49197	
438	4.370	-401.55325	1498.91235	-160.35068	-527.97900	1580.91980	-151.05215	-380.71307	1630.56824	-324.97601				-389.48730	1496.74084	-487.04861	-691.73999	1477.79248	-202.03999	-498.85608	1325.58984	-271.98676	-636.18445	1519.25793	-438.17896	-349.96643	1179.93542	-545.09235	-793.24329	1203.10913	-133.46210	-314.79666	987.12543	-400.22366	-661.90759	1033.15442	-7.85199	-405.98315	926.37451	-350.57904	-612.99487	962.47498	-160.85400	-693.02698	969.31207	-484.41556	-432.08539	480.14401	-379.32401	-586.05322	549.60736	-99.21658	-634.23859	83.08432	-471.14462	-662.54071	122.80234	-72.67551	
439	4.380	-396.72974	1500.24609	-155.13055	-525.18018	1581.45447	-145.98494	-378.72147	1631.02942	-319.41827				-388.71805	1497.09204	-483.18137	-688.40570	1478.15649	-194.96126	-494.67371	1325.95630	-267.59689	-634.54803	1518.73621	-430.88309	-349.51297	1179.94641	-541.99359	-789.73309	1203.05481	-127.23099	-313.48413	987.03772	-399.10461	-656.38715	1032.56873	-1.65720	-404.00287	927.06738	-346.65964	-607.80511	962.08337	-154.94025	-691.31580	969.04590	-478.28888	-431.75119	479.84244	-375.73306	-585.69043	546.54297	-93.16408	-634.42004	83.31778	-469.27066	-646.58209	122.17828	-55.00035	
440	4.390	-394.76340	1501.59448	-149.15167	-522.36945	1580.88611	-139.50371	-376.84491	1631.92285	-314.65771				-387.56924	1497.43298	-478.94049	-683.37561	1477.28210	-187.07814	-491.42807	1325.79480	-261.73499	-633.12079	1518.68823	-424.62262	-348.69394	1180.06299	-540.38025	-784.17487	1203.13892	-117.64807	-311.41864	986.86804	-397.57019	-651.17310	1032.05981	4.51510	-403.17892	926.70416	-342.71533	-604.58722	960.87390	-149.08408	-689.27820	968.69330	-472.63947	-431.89346	479.46771	-372.24680	-584.44159	543.15735	-88.03160	-634.36688	83.97491	-469.21326	-629.60114	120.24297	-38.65995	
441	4.400	-391.48645	1501.40369	-143.45512	-520.22333	1581.12231	-133.87694	-374.83139	1632.48303	-308.23331				-386.76328	1498.00183	-475.27908				-486.85843	1325.82715	-255.58629	-631.47961	1518.14014	-417.77902	-347.72577	1180.45776	-536.11847	-780.91064	1201.34912	-112.34019	-309.08163	986.74670	-394.05829	-645.30511	1031.46851	11.06623	-401.16711	926.71039	-340.22614	-598.81311	960.72516	-143.05730	-686.93103	968.07397	-466.65265	-431.72873	478.92838	-369.22992	-583.34247	540.73834	-82.28014	-634.89410	85.06880	-468.16922	-614.32922	120.69653	-26.94021	
